<?xml version="1.0" standalone="no"?>
<!DOCTYPE svg PUBLIC "-//W3C//DTD SVG 20010904//EN"
 "http://www.w3.org/TR/2001/REC-SVG-20010904/DTD/svg10.dtd">
<svg version="1.0" xmlns="http://www.w3.org/2000/svg"
 width="216.000000pt" height="233.000000pt" viewBox="0 0 216.000000 233.000000"
 preserveAspectRatio="xMidYMid meet">
<metadata>
Created by potrace 1.15, written by Peter Selinger 2001-2017
</metadata>
<g transform="translate(0.000000,233.000000) scale(0.100000,-0.100000)"
fill="#000000" stroke="none">
<path d="M249 2206 c-82 -22 -162 -97 -195 -182 -18 -47 -19 -89 -19 -889 l0
-840 26 -56 c31 -65 82 -119 142 -151 l42 -23 835 0 835 0 42 23 c66 35 110
79 140 140 l28 57 0 850 0 850 -33 67 c-34 70 -80 114 -149 146 -35 16 -103
17 -843 19 -616 1 -816 -1 -851 -11z m1641 -256 c18 -18 20 -33 20 -183 0
-222 15 -207 -201 -207 -223 0 -209 -13 -209 199 0 145 2 161 21 185 l20 26
165 0 c151 0 166 -2 184 -20z m-689 -416 c73 -22 125 -54 181 -111 85 -88 124
-196 115 -319 -11 -148 -98 -274 -236 -342 -71 -35 -80 -37 -175 -37 -93 0
-107 3 -168 32 -208 98 -300 324 -219 535 25 65 102 156 166 196 93 59 229 78
336 46z m714 -700 c0 -460 -1 -483 -19 -503 l-19 -21 -791 0 c-700 0 -794 2
-814 16 l-22 15 0 485 0 484 104 0 103 0 -8 -42 c-13 -68 -10 -207 6 -282 44
-208 214 -392 429 -463 102 -33 253 -38 356 -10 92 24 216 88 277 141 150 133
243 412 204 613 -5 23 -6 45 -3 48 3 3 49 4 102 3 l95 -3 0 -481z"/>
</g>
</svg>
